<svg width="314" height="479" viewBox="0 0 314 479" fill="none" xmlns="http://www.w3.org/2000/svg">
<g clip-path="url(#clip0)">
<path d="M123.584 155.452C120.758 155.234 117.921 155.206 115.091 155.369C112.376 155.897 109.595 156.003 106.847 155.683C103.89 155.31 95.711 149.093 89.1286 143.243C82.0516 136.845 76.3281 129.09 72.297 120.437C68.8343 111.214 63.5087 92.199 61.01 85.8222C58.5113 79.4453 55.2585 78.2221 51.2902 77.6653C46.6269 77.0136 43.6018 78.85 46.071 88.4286C48.5401 98.0072 53.8776 116.27 60.4393 128.005C65.4457 136.756 71.8611 144.619 79.4265 151.276C86.0006 156.923 93.2353 161.75 100.972 165.65C103.195 166.879 104.544 168.342 108.509 171.188C112.428 174.083 116.989 175.987 121.801 176.736C125.867 177.109 127.39 176.599 127.824 175.812C128.369 174.819 127.665 174.008 125.828 173.623C122.872 173.233 120.01 172.312 117.38 170.904C117.38 170.904 121.354 171.943 123.788 172.355C125.954 172.727 128.16 172.805 130.347 172.589C132.455 172.34 133.94 169.562 132.1 169.13C130.261 168.697 128.715 168.863 125.119 168.2C123.21 167.86 121.349 167.294 119.574 166.511C122 166.81 124.445 166.915 126.887 166.825C128.859 166.86 130.799 166.327 132.476 165.288C133.339 164.728 133.685 162.871 131.332 162.64C128.362 162.799 125.383 162.6 122.46 162.048C119.574 161.305 117.634 160.377 118.128 160.04C118.622 159.702 120.29 160.259 122.827 159.678C125.249 159.122 127.295 157.131 126.878 155.796C126.461 154.46 126.166 155.268 123.584 155.452Z" fill="#FFA8A7"/>
<path d="M62.9468 89.1572C61.3619 83.9029 60.1347 81.409 56.9825 79.1936C55.2974 77.911 53.2494 77.1975 51.1334 77.1558L44.3559 107.201L51.1423 122.602C61.8172 125.339 70.6914 113.989 70.6914 113.989C70.6914 113.989 64.4076 94.0057 62.9468 89.1572Z" fill="#E4F2F2"/>
<path d="M27.205 314.141C26.773 315.702 26.2447 317.234 25.623 318.729C24.5855 321.018 23.9838 323.481 23.8488 325.992C23.9759 327.769 27.6633 330.828 30.3335 331.595C33.4858 332.945 36.1632 335.208 38.0219 338.094C39.3546 339.864 41.0434 341.333 42.979 342.408C44.9146 343.483 47.054 344.14 49.2587 344.334C53.1235 344.465 57.5384 344.207 58.6828 342.806C59.8271 341.405 58.8099 339.492 51.6893 332.614C44.5688 325.737 39.7399 321.493 38.0189 315.844L27.205 314.141Z" fill="#2D2979"/>
<path d="M7.93688 335.25C6.2436 337.963 5.53944 341.179 5.94384 344.352C6.26852 348.579 6.05885 352.83 5.31986 357.005C5.11414 362.001 6.5326 366.93 9.36216 371.05C10.0156 371.891 10.8835 372.54 11.8744 372.929C12.8654 373.318 13.9427 373.431 14.9927 373.258C16.0427 373.084 17.0265 372.63 17.8404 371.943C18.6543 371.257 19.2682 370.363 19.6172 369.356C21.5931 364.568 21.9585 359.265 20.6581 354.25C19.3038 348.919 21.1046 344.847 20.2145 341.272C19.707 339.194 18.9846 337.175 18.0589 335.247L7.93688 335.25Z" fill="#2D2979"/>
<path d="M7.93691 188.097C8.13208 194.083 9.99205 220.085 10.823 233.843C11.6539 247.601 12.8781 263.621 12.8781 263.621C10.6542 271.036 9.00225 278.611 7.93691 286.279C6.40516 298.067 7.93691 335.25 7.93691 335.25C9.44702 336.221 11.2036 336.737 12.9979 336.737C14.7922 336.737 16.5488 336.221 18.0589 335.25C18.0589 335.25 25.0375 302.48 27.9709 289.072C30.9043 275.664 33.9323 269.314 34.5207 260.884C35.1092 252.455 38.0692 205.643 38.0692 205.643L39.6571 205.732L43.522 248.519C40.3571 253.735 37.8933 259.347 36.1945 265.209C34.024 273.638 27.1962 314.141 27.1962 314.141C28.5277 315.63 30.3317 316.613 32.3032 316.923C34.2747 317.234 36.2927 316.852 38.016 315.844C38.016 315.844 61.7729 261.432 63.9375 256.071C66.102 250.711 62.9469 173.981 62.9469 173.981L7.93691 188.097Z" fill="#7FA8E6"/>
<path d="M38.075 205.643C43.5384 203.649 48.7663 201.06 53.6646 197.922C51.1736 201.21 47.9493 203.87 44.2494 205.688C43.6964 211.315 43.5278 248.519 43.5278 248.519L39.663 205.732L38.075 205.643Z" fill="#597BC6"/>
<path d="M22.2668 72.3991C22.2668 72.3991 22.9351 85.4549 22.6453 86.6159C22.3555 87.777 16.6661 91.5977 15.0072 92.9691C13.3483 94.3404 24.0173 104.879 29.201 107.263C34.3848 109.647 50.823 103.362 51.1098 95.2793C51.3966 87.1965 48.3006 80.4079 45.7872 80.0495C43.2737 79.6912 22.2668 72.3991 22.2668 72.3991Z" fill="#FFA8A7"/>
<path d="M22.2667 72.328L22.6452 81.3705C22.6452 81.3705 30.9545 89.2608 37.5812 88.0702C41.2657 87.4067 40.8961 84.978 40.8961 84.978V77.3868L22.2667 72.328Z" fill="#F28F8F"/>
<path d="M20.7912 88.5589C20.7912 88.5589 30.2537 102.666 43.4422 103.996C47.582 99.8909 47.9783 85.2742 42.2179 80.5975C42.2179 80.5975 47.511 76.3236 51.1334 77.1499C55.0225 79.5132 57.9179 83.2157 59.2771 87.5637C62.6332 97.2708 64.2091 107.506 63.9286 117.774C63.7068 131.624 63.9434 173.928 63.9434 173.928C63.9434 173.928 62.0863 182.879 50.1605 189.534C38.2348 196.189 29.3607 196.841 21.2702 194.951C14.5902 193.39 9.07531 191.038 6.78064 186.181C7.37205 176.478 11.7041 151.148 10.0896 138.946C8.47504 126.743 5.89946 117.62 5.23412 107.763C4.56879 97.9065 6.52929 98.096 11.4705 94.5774C14.4286 92.349 17.5436 90.3376 20.7912 88.5589Z" fill="#F5FBFB"/>
<path d="M43.4422 103.996C44.0257 100.808 44.403 97.5859 44.5717 94.3493C43.9858 90.6804 42.7437 87.1476 40.905 83.9207V80.2598C42.8259 80.7271 44.529 81.8393 45.7309 83.4112C49.1064 87.4071 50.8165 92.5511 50.5065 97.7761C48.7979 100.487 46.3452 102.646 43.4422 103.996Z" fill="#E4F2F2"/>
<path d="M43.4421 103.996C44.4002 102.133 46.2276 95.8569 47.1206 94.9239C48.8594 94.3493 50.5065 97.7791 50.5065 97.7791C50.4512 99.8884 49.6567 101.911 48.2621 103.492C47.6133 104.073 46.7985 104.434 45.9333 104.524C45.0681 104.615 44.1965 104.43 43.4421 103.996Z" fill="#F5FBFB"/>
<path d="M47.1206 94.9209C46.2335 95.8539 44.4002 102.13 43.4421 103.993C44.0471 102.95 44.7125 101.943 45.4351 100.978C46.4198 99.7161 47.6056 97.3082 50.5065 97.7761C50.5065 97.7761 48.8594 94.3463 47.1206 94.9209Z" fill="#C8DBDA"/>
<path d="M51.7484 52.9458C50.193 42.8133 42.9069 35.1363 32.4744 35.7168C28.2795 35.9359 24.2592 37.4688 20.9808 40.0992C17.7023 42.7296 15.3313 46.3247 14.2022 50.3773C13.0731 54.4298 13.2429 58.7352 14.6877 62.6858C16.1325 66.6365 18.7794 70.033 22.2548 72.3962C22.6207 73.9343 23.1624 75.4251 23.8694 76.8389C27.5598 81.1632 38.7167 83.8318 41.9221 83.3727C43.8285 83.2009 45.6395 82.4598 47.1205 81.2452C48.6015 80.0306 49.6842 78.3986 50.2285 76.5605C53.7001 68.5902 52.6119 57.9542 51.7484 52.9458Z" fill="#FFA8A7"/>
<path d="M50.2403 44.777C48.0517 41.3887 44.8864 38.7468 41.1643 37.2016C37.4422 35.6565 33.339 35.2812 29.3991 36.1255C24.2065 37.2423 19.665 40.3689 16.7636 44.8244C12.4049 46.3794 11.9672 49.6493 12.5025 54.9746C12.8334 60.4927 14.3302 65.8776 16.8937 70.7731C17.8045 72.3606 20.6728 71.3003 22.2637 72.3962C22.0419 71.712 16.7843 63.8394 22.2016 62.0979C23.0255 63.3101 23.422 64.7631 23.3283 66.2267C23.3283 66.2267 26.0132 65.9749 25.3982 62.8205C25.2296 61.932 25.0729 61.1353 24.9309 60.4096C24.7129 59.201 24.7365 57.9611 25.0004 56.7617C25.2644 55.5623 25.7634 54.4274 26.4686 53.4226C27.1617 52.4919 27.6474 51.423 27.8928 50.2882C28.1382 49.1533 28.1375 47.979 27.891 46.8444C32.7586 48.7099 38.0618 49.1215 43.1582 48.0291C45.7806 47.645 48.2383 46.5165 50.2403 44.777Z" fill="#543354"/>
<path d="M16.7636 44.8244C16.7636 44.8244 15.5157 40.8408 20.6403 36.9489C26.7377 32.3196 35.3102 33.3503 44.347 36.9489C50.1221 39.2473 59.0849 36.4276 57.358 43.0621C54.8119 52.7799 36.0672 53.6181 27.9146 46.8444C24.4496 45.1698 20.5948 44.4715 16.7636 44.8244Z" fill="#543354"/>
<path d="M22.2667 72.328C22.2667 72.328 21.7995 73.4032 19.8419 73.5128C16.1841 73.6935 11.8963 66.8842 14.8474 62.2578C15.2846 61.707 15.8377 61.2596 16.4673 60.9475C17.0969 60.6353 17.7874 60.4662 18.4898 60.452C19.1921 60.4379 19.889 60.5791 20.5306 60.8656C21.1722 61.1522 21.7427 61.577 22.2016 62.1097L22.2667 72.328Z" fill="#FFA8A7"/>
<path d="M22.7102 84.0036C22.9527 86.0088 33.5596 93.9169 36.0879 94.9416C38.6162 95.9664 43.4421 103.996 43.4421 103.996C41.6465 103.736 39.8144 103.947 38.1244 104.608C36.4344 105.269 34.9442 106.357 33.7992 107.766C33.7992 107.766 18.7182 101.416 16.2905 91.269C16.2905 91.269 19.0967 85.8281 19.5195 84.439C19.9424 83.0499 21.072 81.4386 22.6452 81.3705L22.7102 84.0036Z" fill="#E4F2F2"/>
<path d="M33.7992 107.766C33.7992 107.766 34.9169 99.9857 36.5315 99.2778C38.146 98.5699 43.4421 103.996 43.4421 103.996C40.7999 106.398 37.367 107.74 33.7992 107.766Z" fill="#F5FBFB"/>
<path d="M36.5315 99.2778C34.9169 99.9856 33.7992 107.766 33.7992 107.766C35.4854 106.148 37.3391 104.714 39.3289 103.49C40.719 103.37 42.1188 103.541 43.4392 103.993C43.4392 103.993 38.146 98.5669 36.5315 99.2778Z" fill="#C8DBDA"/>
<path opacity="0.15" d="M310.807 395.737L170.03 477.167C167.646 478.372 165.013 479 162.342 479C159.671 479 157.038 478.372 154.654 477.167L13.8598 395.737C12.9784 395.352 12.2168 394.736 11.6549 393.954C11.093 393.172 10.7515 392.254 10.6662 391.294C10.6933 390.649 10.8577 390.016 11.1484 389.44C11.439 388.863 11.8493 388.355 12.3517 387.95C12.8077 387.524 13.3141 387.154 13.8598 386.851L154.654 305.466C157.036 304.254 159.67 303.622 162.342 303.622C165.014 303.622 167.648 304.254 170.03 305.466L310.815 386.857C315.035 389.316 315.035 393.317 310.807 395.737Z" fill="#6B99D1"/>
<path d="M310.807 301.399L170.021 382.791C167.659 384.055 165.011 384.688 162.333 384.627C159.669 384.683 157.034 384.061 154.674 382.82L13.8598 301.399C12.9829 301.008 12.2255 300.39 11.6645 299.61C11.1035 298.829 10.759 297.914 10.6662 296.957C10.7515 295.997 11.093 295.078 11.6549 294.297C12.2168 293.515 12.9784 292.899 13.8598 292.514L36.2151 279.6L154.654 211.093C157.036 209.881 159.67 209.249 162.342 209.249C165.014 209.249 167.648 209.881 170.03 211.093L310.815 292.514C315.035 294.943 315.035 298.941 310.807 301.399Z" fill="#DCEEFF"/>
<path d="M162.342 352.521V384.627C159.678 384.683 157.043 384.061 154.683 382.82L13.8687 301.399C12.9918 301.008 12.2343 300.39 11.6734 299.61C11.1124 298.829 10.7679 297.914 10.675 296.957V269.145C10.7025 268.499 10.867 267.867 11.1577 267.29C11.4483 266.712 11.8584 266.204 12.3606 265.798L36.2239 279.6L162.342 352.521Z" fill="#A5CBFA"/>
<path d="M162.342 352.521V384.627C165.006 384.683 167.641 384.061 170.001 382.82L310.815 301.399C311.692 301.008 312.45 300.39 313.011 299.61C313.572 298.829 313.916 297.914 314.009 296.957V269.145C313.981 268.499 313.817 267.867 313.526 267.29C313.236 266.712 312.826 266.204 312.323 265.798L288.46 279.6L162.342 352.521Z" fill="#C8E2FF"/>
<path d="M310.807 273.588L170.021 355.009C167.638 356.216 165.004 356.845 162.333 356.845C159.662 356.845 157.028 356.216 154.645 355.009L13.8598 273.588C12.9784 273.202 12.2168 272.587 11.6549 271.805C11.093 271.023 10.7515 270.104 10.6662 269.145C10.6936 268.499 10.8581 267.867 11.1488 267.29C11.4394 266.713 11.8495 266.204 12.3517 265.798C12.8078 265.372 13.3142 265.004 13.8598 264.702L154.654 183.311C157.036 182.099 159.67 181.467 162.342 181.467C165.014 181.467 167.648 182.099 170.03 183.311L310.815 264.702C315.035 267.161 315.035 271.159 310.807 273.588Z" fill="#DCEEFF"/>
<path d="M162.333 353.883C164.714 353.883 166.973 353.361 168.543 352.444L309.336 271.018C310.578 270.305 311.02 269.57 311.021 269.158C311.022 268.74 310.578 267.994 309.328 267.267L168.545 185.877C166.951 184.957 164.683 184.429 162.322 184.429C159.964 184.429 157.707 184.955 156.123 185.876L15.338 267.267L15.3116 267.283L15.2849 267.297C14.9602 267.476 14.6503 267.702 14.3638 267.969L14.3438 267.987L14.3235 268.005C13.885 268.398 13.6232 268.824 13.6232 269.145C13.6232 269.7 14.2746 270.416 15.323 271.014L15.3307 271.018L15.3384 271.023L156.135 352.45C157.693 353.361 159.953 353.883 162.333 353.883ZM162.333 356.845C159.554 356.845 156.774 356.253 154.645 355.009L13.8598 273.588C11.7307 272.373 10.6662 270.774 10.6662 269.145C10.6662 267.99 11.228 266.805 12.3517 265.798C12.7657 265.413 13.2684 265.028 13.8598 264.702L154.645 183.311C156.759 182.082 159.539 181.467 162.322 181.467C165.105 181.467 167.892 182.082 170.021 183.311L310.807 264.702C315.035 267.161 315.035 271.159 310.807 273.588L170.021 355.009C167.892 356.253 165.113 356.845 162.333 356.845Z" fill="white"/>
<path d="M157.206 202.658L47.3306 266.198C46.7127 266.408 46.176 266.807 45.7959 267.338C45.4157 267.869 45.2114 268.506 45.2114 269.16C45.2114 269.813 45.4157 270.451 45.7959 270.982C46.176 271.513 46.7127 271.912 47.3306 272.122L157.206 335.659C158.793 336.465 160.549 336.885 162.329 336.885C164.109 336.885 165.864 336.465 167.452 335.659L277.321 272.122C277.94 271.913 278.479 271.515 278.86 270.984C279.241 270.452 279.446 269.814 279.446 269.16C279.446 268.505 279.241 267.867 278.86 267.336C278.479 266.805 277.94 266.407 277.321 266.198L167.449 202.658C165.862 201.852 164.107 201.432 162.327 201.432C160.548 201.432 158.793 201.852 157.206 202.658Z" fill="#344593"/>
<path d="M277.321 266.198L167.449 202.658C165.877 201.824 164.12 201.405 162.342 201.44V206.653L276.451 272.64L277.339 272.131C277.961 271.922 278.501 271.523 278.883 270.989C279.266 270.455 279.471 269.815 279.469 269.158C279.467 268.501 279.258 267.861 278.872 267.33C278.487 266.799 277.944 266.403 277.321 266.198Z" fill="#1E3779"/>
<path d="M162.342 201.44C160.558 201.405 158.795 201.828 157.22 202.667L47.3454 266.207C46.7275 266.417 46.1907 266.815 45.8106 267.347C45.4305 267.878 45.2261 268.515 45.2261 269.169C45.2261 269.822 45.4305 270.459 45.8106 270.991C46.1907 271.522 46.7275 271.921 47.3454 272.131L48.2325 272.64L162.342 206.644V201.44Z" fill="#031F60"/>
<path d="M126.287 234.426L162.312 255.272V144.132L126.278 123.292L126.287 234.426Z" fill="#57F7E0"/>
<path d="M162.312 255.272L198.359 234.426V123.289L162.324 144.129L162.312 255.272Z" fill="#6CFFE6"/>
<path d="M198.344 123.289L162.313 102.444L126.29 123.289L162.325 144.129L198.344 123.289Z" fill="#ABFFEF"/>
<path d="M162.312 255.269L162.324 144.129" stroke="white" stroke-width="0.75" stroke-miterlimit="10"/>
<path d="M198.347 123.289L162.324 144.129" stroke="white" stroke-width="0.75" stroke-miterlimit="10"/>
<path d="M186.359 269.148L222.37 289.999V192.756L186.336 171.917L186.359 269.148Z" fill="#57F7E0"/>
<path d="M222.37 289.999L258.416 269.154V171.917L222.394 192.756L222.37 289.999Z" fill="#6CFFE6"/>
<path d="M258.417 171.911L222.371 151.068L186.348 171.914L222.382 192.753L258.417 171.911Z" fill="#ABFFEF"/>
<path d="M222.382 289.993L222.394 192.75" stroke="white" stroke-width="0.75" stroke-miterlimit="10"/>
<path d="M258.416 171.911L222.394 192.75" stroke="white" stroke-width="0.75" stroke-miterlimit="10"/>
<path d="M66.2173 269.154L102.243 289.999V178.859L66.2173 158.02V269.154Z" fill="#57F7E0"/>
<path d="M102.24 289.999L138.286 269.154V158.017L102.264 178.856L102.24 289.999Z" fill="#6CFFE6"/>
<path d="M138.275 158.02L102.24 137.169L66.2173 158.02L102.252 178.859L138.275 158.02Z" fill="#ABFFEF"/>
<path d="M102.24 289.999L102.252 178.859" stroke="white" stroke-width="0.75" stroke-miterlimit="10"/>
<path d="M138.275 158.02L102.252 178.859" stroke="white" stroke-width="0.75" stroke-miterlimit="10"/>
<path d="M126.299 303.887L162.321 324.733V241.372L126.287 220.532L126.299 303.887Z" fill="#57F7E0"/>
<path d="M162.321 324.733L198.368 303.887V220.532L162.342 241.372L162.321 324.733Z" fill="#6CFFE6"/>
<path d="M198.356 220.532L162.322 199.687L126.299 220.532L162.334 241.372L198.356 220.532Z" fill="#ABFFEF"/>
<path d="M162.321 324.733L162.333 241.372" stroke="white" stroke-width="0.75" stroke-miterlimit="10"/>
<path d="M198.359 220.532L162.336 241.372" stroke="white" stroke-width="0.75" stroke-miterlimit="10"/>
<path opacity="0.3" d="M170.007 63.2648C167.692 64.6516 165.008 65.2926 162.318 65.1012C162.277 65.1012 162.236 65.1012 162.194 65.1012H162.307V336.876C164.086 336.861 165.839 336.442 167.434 335.65L276.422 272.622C278.45 271.503 279.426 270.516 279.426 269.151V0.00888276L170.007 63.2648Z" fill="url(#paint0_linear)"/>
<path opacity="0.5" d="M162.194 65.0982C161.547 65.1101 160.899 65.0844 160.254 65.0212L160.133 65.0005C159.515 64.9383 158.901 64.8394 158.294 64.7043C157.904 64.6095 157.525 64.4732 157.144 64.3488C156.907 64.2718 156.662 64.2185 156.431 64.1267C155.821 63.8948 155.228 63.6197 154.657 63.3033L45.1927 0.00888276V269.148C45.2527 269.785 45.4806 270.396 45.8531 270.916C46.2256 271.436 46.7294 271.848 47.3129 272.11L157.197 335.656C158.746 336.411 160.442 336.815 162.165 336.841C162.212 336.841 162.256 336.859 162.304 336.859V65.1012L162.194 65.0982Z" fill="url(#paint1_linear)"/>
<path d="M75.733 181.3C72.9071 180.946 70.0617 180.77 67.2137 180.773C64.7345 181.166 62.1969 180.947 59.8211 180.136C56.731 179.129 49.5306 173.096 43.3858 166.781C36.7665 159.504 31.4408 151.146 27.6396 142.067C23.4701 131.008 19.9838 114.374 17.9523 107.832C15.9208 101.289 12.7686 99.8346 8.84756 98.9935C4.24639 98.0012 0.245498 101.425 2.00198 111.137C4.66448 124.463 8.80026 137.451 14.3329 149.86C18.6935 158.95 24.5223 167.256 31.5843 174.443C37.7323 180.554 44.5998 185.893 52.0352 190.342C54.1643 191.732 55.4004 193.304 59.1499 196.414C62.8498 199.587 67.2609 201.816 72.0071 202.912C76.0346 203.579 77.593 203.182 78.0809 202.427C78.696 201.476 78.0543 200.614 76.2505 200.102C73.3296 199.497 70.5417 198.369 68.021 196.773C68.021 196.773 71.9095 198.099 74.3077 198.686C76.4405 199.215 78.6346 199.454 80.831 199.397C82.9512 199.302 84.6337 196.636 82.8299 196.074C81.0261 195.511 79.4737 195.561 75.9341 194.64C74.0547 194.162 72.239 193.461 70.5257 192.552C72.9232 193.026 75.3547 193.308 77.797 193.396C79.7614 193.575 81.7357 193.183 83.4834 192.268C84.3706 191.773 84.8644 189.948 82.5313 189.546C79.5621 189.487 76.6106 189.072 73.7399 188.311C70.913 187.36 69.0471 186.294 69.5646 185.991C70.0821 185.689 71.7055 186.368 74.2752 185.974C76.7325 185.595 78.9177 183.758 78.5984 182.396C78.279 181.033 78.3204 181.3 75.733 181.3Z" fill="#FFA8A7"/>
<path d="M5.91415 98.5018C1.07051 100.534 -1.24191 105.815 0.674254 115.355C2.55198 124.711 6.52333 139.156 6.52333 139.156C13.3404 138.831 19.8427 136.186 24.9546 131.657C24.9546 131.657 20.4747 111.119 18.7241 105.82C16.9735 100.522 12.3812 95.7858 5.91415 98.5018Z" fill="#E4F2F2"/>
</g>
<defs>
<linearGradient id="paint0_linear" x1="279.544" y1="271.861" x2="156.544" y2="245.598" gradientUnits="userSpaceOnUse">
<stop stop-color="#57F7E0"/>
<stop offset="0.041" stop-color="#57F7E0" stop-opacity="0.906"/>
<stop offset="0.144" stop-color="#57F7E0" stop-opacity="0.698"/>
<stop offset="0.251" stop-color="#57F7E0" stop-opacity="0.51"/>
<stop offset="0.361" stop-color="#57F7E0" stop-opacity="0.353"/>
<stop offset="0.473" stop-color="#57F7E0" stop-opacity="0.224"/>
<stop offset="0.59" stop-color="#57F7E0" stop-opacity="0.125"/>
<stop offset="0.712" stop-color="#57F7E0" stop-opacity="0.055"/>
<stop offset="0.843" stop-color="#57F7E0" stop-opacity="0.012"/>
<stop offset="1" stop-color="#57F7E0" stop-opacity="0"/>
</linearGradient>
<linearGradient id="paint1_linear" x1="45.3099" y1="272.52" x2="144.372" y2="251.21" gradientUnits="userSpaceOnUse">
<stop stop-color="#57F7E0"/>
<stop offset="0.041" stop-color="#57F7E0" stop-opacity="0.906"/>
<stop offset="0.144" stop-color="#57F7E0" stop-opacity="0.698"/>
<stop offset="0.251" stop-color="#57F7E0" stop-opacity="0.51"/>
<stop offset="0.361" stop-color="#57F7E0" stop-opacity="0.353"/>
<stop offset="0.473" stop-color="#57F7E0" stop-opacity="0.224"/>
<stop offset="0.59" stop-color="#57F7E0" stop-opacity="0.125"/>
<stop offset="0.712" stop-color="#57F7E0" stop-opacity="0.055"/>
<stop offset="0.843" stop-color="#57F7E0" stop-opacity="0.012"/>
<stop offset="1" stop-color="#57F7E0" stop-opacity="0"/>
</linearGradient>
<clipPath id="clip0">
<rect width="314" height="479" fill="white"/>
</clipPath>
</defs>
</svg>
